<svg id="svg" version="1.1" xmlns="http://www.w3.org/2000/svg" xmlns:xlink="http://www.w3.org/1999/xlink" width="400" height="81.04196816208393" viewBox="0, 0, 400,81.04196816208393"><g id="svgg"><path id="path0" d="M11.577 39.942 L 11.577 68.017 123.734 68.017 L 235.890 68.017 235.890 39.942 L 235.890 11.867 123.734 11.867 L 11.577 11.867 11.577 39.942 M234.443 39.942 L 234.443 66.570 123.734 66.570 L 13.025 66.570 13.025 39.942 L 13.025 13.314 123.734 13.314 L 234.443 13.314 234.443 39.942 M22.741 22.741 C 22.186 23.297,22.038 55.146,22.586 56.170 C 22.852 56.665,23.215 56.729,25.760 56.729 C 29.453 56.729,29.233 57.222,29.233 48.929 L 29.233 42.247 36.397 42.325 L 43.560 42.402 43.638 49.181 C 43.731 57.318,43.466 56.774,47.294 56.667 L 50.217 56.585 50.292 39.830 C 50.378 20.571,50.673 22.287,47.268 22.287 C 43.443 22.287,43.705 21.755,43.705 29.533 L 43.705 36.179 36.469 36.179 L 29.233 36.179 29.233 29.688 C 29.233 21.864,29.431 22.287,25.760 22.287 C 23.815 22.287,23.086 22.396,22.741 22.741 M63.676 22.570 C 63.141 22.907,62.857 54.613,63.376 55.978 L 63.669 56.749 66.784 56.667 L 69.899 56.585 69.973 39.671 C 70.032 26.332,69.971 22.709,69.684 22.527 C 69.172 22.202,64.202 22.237,63.676 22.570 M83.430 22.608 C 82.818 23.239,82.912 56.318,83.526 56.554 C 84.379 56.881,89.015 56.745,89.378 56.382 C 89.626 56.134,89.725 54.279,89.725 49.870 L 89.725 43.705 93.156 43.705 L 96.587 43.705 99.822 49.746 C 103.825 57.223,103.350 56.772,107.126 56.668 C 111.097 56.558,111.113 56.819,106.680 49.059 L 103.060 42.722 104.569 41.912 C 112.447 37.685,110.909 25.968,102.098 23.080 C 99.809 22.330,84.085 21.933,83.430 22.608 M117.279 22.634 C 116.732 23.181,116.631 22.977,122.865 33.991 L 128.799 44.474 128.799 50.277 C 128.799 57.208,128.555 56.782,132.460 56.668 L 135.311 56.585 135.456 50.507 L 135.601 44.428 141.462 34.058 C 148.571 21.479,148.391 22.287,144.081 22.287 C 140.888 22.287,141.463 21.676,136.362 30.479 C 132.739 36.730,132.158 37.589,131.855 37.135 C 131.664 36.848,129.840 33.683,127.801 30.101 C 123.228 22.070,123.440 22.287,120.158 22.287 C 118.575 22.287,117.496 22.417,117.279 22.634 M157.511 22.634 C 157.043 23.102,157.019 45.297,157.483 47.526 C 159.043 55.006,167.070 58.978,175.904 56.641 C 183.773 54.560,184.949 51.678,184.949 34.486 C 184.949 21.149,185.262 22.287,181.598 22.287 C 178.038 22.287,178.337 21.190,178.236 34.598 L 178.148 46.165 177.387 47.788 C 174.981 52.919,167.132 52.919,164.726 47.788 L 163.965 46.165 163.877 34.598 C 163.819 26.943,163.685 22.906,163.480 22.659 C 163.068 22.162,158.004 22.141,157.511 22.634 M197.538 22.764 C 196.799 23.502,197.037 46.260,197.808 48.625 C 200.331 56.364,210.133 59.668,218.715 55.671 C 224.180 53.126,224.955 50.619,225.109 34.992 C 225.247 21.135,225.550 22.284,221.759 22.291 C 218.042 22.298,218.401 21.022,218.234 34.794 C 218.095 46.343,218.069 46.783,217.465 47.902 C 214.561 53.284,205.826 52.521,204.375 46.758 C 204.165 45.923,204.052 41.578,204.052 34.335 C 204.052 24.595,203.995 23.139,203.597 22.741 C 202.930 22.074,198.211 22.091,197.538 22.764 M245.210 22.923 C 244.708 23.425,244.708 56.170,245.210 56.671 C 245.696 57.158,250.824 57.146,251.141 56.657 C 251.269 56.458,251.440 51.514,251.520 45.669 L 251.664 35.044 254.962 41.328 C 259.008 49.038,258.669 48.625,260.950 48.625 C 263.271 48.625,263.028 48.911,266.705 41.862 C 268.400 38.614,269.970 35.714,270.195 35.417 C 270.550 34.949,270.605 36.299,270.613 45.601 C 270.620 53.545,270.712 56.414,270.970 56.671 C 271.332 57.034,275.684 57.168,276.532 56.843 C 277.134 56.612,277.241 23.522,276.643 22.923 C 276.169 22.449,271.754 22.461,271.122 22.938 C 270.671 23.279,269.784 24.858,263.555 36.418 L 261.009 41.142 256.124 32.096 C 253.438 27.121,251.075 22.945,250.873 22.817 C 250.281 22.442,245.604 22.529,245.210 22.923 M290.072 22.923 C 289.614 23.381,289.568 55.607,290.025 56.459 C 290.313 56.998,290.753 57.019,302.026 57.019 C 315.471 57.019,314.327 57.296,314.327 54.044 C 314.327 51.104,314.755 51.230,304.818 51.230 L 296.367 51.230 296.447 46.816 L 296.527 42.402 304.342 42.328 C 313.283 42.242,312.880 42.369,312.880 39.653 C 312.880 36.937,313.283 37.063,304.342 36.978 L 296.527 36.903 296.447 32.634 L 296.367 28.365 304.498 28.365 C 309.549 28.365,312.841 28.251,313.188 28.065 C 313.856 27.708,314.028 23.550,313.401 22.923 C 312.902 22.425,290.571 22.425,290.072 22.923 M323.068 22.923 C 322.855 23.136,322.721 24.178,322.721 25.615 C 322.721 28.763,322.527 28.654,328.133 28.654 L 332.851 28.654 332.851 42.277 C 332.851 58.389,332.533 57.019,336.276 57.019 C 340.159 57.019,339.797 58.513,339.797 42.489 L 339.797 28.654 344.660 28.654 C 350.384 28.654,350.217 28.739,350.217 25.828 C 350.217 22.239,351.635 22.576,336.517 22.576 C 326.713 22.576,323.328 22.663,323.068 22.923 M365.897 23.082 C 365.297 23.595,353.401 55.115,353.401 56.191 C 353.401 56.897,354.208 57.062,357.164 56.959 L 359.624 56.874 360.138 55.861 C 360.420 55.304,361.050 53.774,361.538 52.460 L 362.424 50.072 369.707 50.073 L 376.990 50.073 378.110 53.039 C 379.640 57.088,379.558 57.019,382.788 57.019 C 384.829 57.019,385.544 56.915,385.824 56.577 C 386.243 56.072,374.542 24.038,373.589 23.083 C 372.842 22.335,366.772 22.335,365.897 23.082 M99.849 28.437 C 103.409 30.256,103.561 35.452,100.114 37.482 C 99.263 37.983,98.502 38.074,94.428 38.158 L 89.725 38.255 89.725 33.021 L 89.725 27.786 94.150 27.786 C 98.168 27.786,98.692 27.846,99.849 28.437 M372.612 37.076 C 373.985 40.832,375.109 44.056,375.109 44.239 C 375.109 44.581,364.676 44.753,364.339 44.417 C 364.222 44.299,367.425 35.204,369.483 29.812 C 369.721 29.188,369.768 29.297,372.612 37.076 " stroke="none" fill="#000000" fill-rule="evenodd"></path></g></svg>